<?xml version="1.0" standalone="no"?>
<!DOCTYPE svg PUBLIC "-//W3C//DTD SVG 20010904//EN"
 "http://www.w3.org/TR/2001/REC-SVG-20010904/DTD/svg10.dtd">
<svg version="1.0" xmlns="http://www.w3.org/2000/svg"
 width="18.000000pt" height="18.000000pt" viewBox="0 0 18.000000 18.000000"
 preserveAspectRatio="xMidYMid meet">

<g transform="translate(0.000000,18.000000) scale(0.100000,-0.100000)"
fill="#000000" stroke="none">
<path d="M76 145 c-4 -11 2 -15 22 -15 52 0 70 -46 30 -74 -16 -12 -18 -16 -7
-16 20 0 49 31 49 52 0 19 -32 48 -53 48 -9 0 -17 5 -17 10 0 15 -17 12 -24
-5z"/>
<path d="M27 122 c-9 -10 -17 -25 -17 -34 0 -24 34 -48 66 -47 27 2 27 2 4 6
-14 3 -31 10 -37 15 -14 12 -17 44 -5 52 4 2 8 -8 7 -22 0 -25 3 -27 45 -27
36 0 45 4 48 19 5 23 -14 36 -55 36 -17 0 -33 5 -35 11 -2 6 -11 2 -21 -9z
m98 -32 c0 -18 -52 -27 -67 -12 -17 17 2 33 35 30 20 -2 32 -8 32 -18z"/>
</g>
</svg>
